<svg width="131" height="24" viewBox="0 0 131 24" fill="none" xmlns="http://www.w3.org/2000/svg">
<path d="M1.72159 21V3.54545H8.26705C9.60795 3.54545 10.733 3.77841 11.642 4.24432C12.5568 4.71023 13.2472 5.36364 13.7131 6.20454C14.1847 7.03977 14.4205 8.0142 14.4205 9.12784C14.4205 10.2472 14.1818 11.2187 13.7045 12.0426C13.233 12.8608 12.5369 13.4943 11.6165 13.9432C10.696 14.3864 9.56534 14.608 8.22443 14.608H3.5625V11.983H7.7983C8.58239 11.983 9.22443 11.875 9.72443 11.6591C10.2244 11.4375 10.5938 11.1165 10.8324 10.696C11.0767 10.2699 11.1989 9.74716 11.1989 9.12784C11.1989 8.50852 11.0767 7.98011 10.8324 7.54261C10.5881 7.09943 10.2159 6.7642 9.71591 6.53693C9.21591 6.30398 8.57102 6.1875 7.78125 6.1875H4.88352V21H1.72159ZM10.7386 13.0909L15.0597 21H11.5312L7.28693 13.0909H10.7386ZM22.8026 21.2557C21.4901 21.2557 20.3565 20.983 19.402 20.4375C18.4531 19.8864 17.723 19.108 17.2116 18.1023C16.7003 17.0909 16.4446 15.9006 16.4446 14.5312C16.4446 13.1847 16.7003 12.0028 17.2116 10.9858C17.7287 9.96307 18.4503 9.16761 19.3764 8.59943C20.3026 8.02557 21.3906 7.73864 22.6406 7.73864C23.4474 7.73864 24.2088 7.86932 24.9247 8.13068C25.6463 8.38636 26.2827 8.78409 26.8338 9.32386C27.3906 9.86364 27.8281 10.5511 28.1463 11.3864C28.4645 12.2159 28.6236 13.2045 28.6236 14.3523V15.2983H17.8935V13.2188H25.6662C25.6605 12.6278 25.5327 12.1023 25.2827 11.642C25.0327 11.1761 24.6832 10.8097 24.2344 10.5426C23.7912 10.2756 23.2741 10.142 22.6832 10.142C22.0526 10.142 21.4986 10.2955 21.0213 10.6023C20.544 10.9034 20.1719 11.3011 19.9048 11.7955C19.6435 12.2841 19.5099 12.821 19.5043 13.4062V15.2216C19.5043 15.983 19.6435 16.6364 19.9219 17.1818C20.2003 17.7216 20.5895 18.1364 21.0895 18.4261C21.5895 18.7102 22.1747 18.8523 22.8452 18.8523C23.294 18.8523 23.7003 18.7898 24.0639 18.6648C24.4276 18.5341 24.7429 18.3438 25.0099 18.0938C25.277 17.8438 25.4787 17.5341 25.6151 17.1648L28.4957 17.4886C28.3139 18.25 27.9673 18.9148 27.456 19.483C26.9503 20.0455 26.3026 20.483 25.5128 20.7955C24.723 21.1023 23.8196 21.2557 22.8026 21.2557ZM35.0007 21.2642C34.1712 21.2642 33.424 21.1165 32.7592 20.821C32.1001 20.5199 31.5774 20.0767 31.1911 19.4915C30.8104 18.9062 30.62 18.1847 30.62 17.3267C30.62 16.5881 30.7564 15.9773 31.0291 15.4943C31.3018 15.0114 31.674 14.625 32.1456 14.3352C32.6172 14.0455 33.1484 13.8267 33.7393 13.679C34.3359 13.5256 34.9524 13.4148 35.5888 13.3466C36.3558 13.267 36.978 13.196 37.4553 13.1335C37.9325 13.0653 38.2791 12.9631 38.495 12.8267C38.7166 12.6847 38.8274 12.4659 38.8274 12.1705V12.1193C38.8274 11.4773 38.6371 10.9801 38.2564 10.6278C37.8757 10.2756 37.3274 10.0994 36.6115 10.0994C35.8558 10.0994 35.2564 10.2642 34.8132 10.5938C34.3757 10.9233 34.0803 11.3125 33.9268 11.7614L31.0462 11.3523C31.2734 10.5568 31.6484 9.89205 32.1712 9.35795C32.6939 8.81818 33.3331 8.41477 34.0888 8.14773C34.8445 7.875 35.6797 7.73864 36.5945 7.73864C37.2251 7.73864 37.853 7.8125 38.478 7.96023C39.103 8.10795 39.674 8.35227 40.1911 8.69318C40.7081 9.02841 41.1229 9.4858 41.4354 10.0653C41.7536 10.6449 41.9126 11.3693 41.9126 12.2386V21H38.9467V19.2017H38.8445C38.657 19.5653 38.3928 19.9062 38.0518 20.2244C37.7166 20.5369 37.2933 20.7898 36.782 20.983C36.2763 21.1705 35.6825 21.2642 35.0007 21.2642ZM35.8018 18.9972C36.4212 18.9972 36.9581 18.875 37.4126 18.6307C37.8672 18.3807 38.2166 18.0511 38.4609 17.642C38.7109 17.233 38.8359 16.7869 38.8359 16.304V14.7614C38.7393 14.8409 38.5746 14.9148 38.3416 14.983C38.1143 15.0511 37.8587 15.1108 37.5746 15.1619C37.2905 15.2131 37.0092 15.2585 36.7308 15.2983C36.4524 15.3381 36.2109 15.3722 36.0064 15.4006C35.5462 15.4631 35.1342 15.5653 34.7706 15.7074C34.407 15.8494 34.12 16.0483 33.9098 16.304C33.6996 16.554 33.5945 16.8778 33.5945 17.2756C33.5945 17.8438 33.8018 18.2727 34.2166 18.5625C34.6314 18.8523 35.1598 18.9972 35.8018 18.9972ZM49.8729 21.2301C48.8445 21.2301 47.924 20.9659 47.1115 20.4375C46.299 19.9091 45.657 19.142 45.1854 18.1364C44.7138 17.1307 44.478 15.9091 44.478 14.4716C44.478 13.017 44.7166 11.7898 45.1939 10.7898C45.6768 9.78409 46.3274 9.02557 47.1456 8.5142C47.9638 7.99716 48.8757 7.73864 49.8814 7.73864C50.6484 7.73864 51.2791 7.86932 51.7734 8.13068C52.2678 8.38636 52.6598 8.69602 52.9496 9.05966C53.2393 9.41761 53.4638 9.75568 53.6229 10.0739H53.7507V3.54545H56.8445V21H53.8104V18.9375H53.6229C53.4638 19.2557 53.2337 19.5937 52.9325 19.9517C52.6314 20.304 52.2337 20.6051 51.7393 20.8551C51.245 21.1051 50.6229 21.2301 49.8729 21.2301ZM50.7337 18.6989C51.3871 18.6989 51.9439 18.5227 52.4041 18.1705C52.8643 17.8125 53.2138 17.3153 53.4524 16.679C53.6911 16.0426 53.8104 15.3011 53.8104 14.4545C53.8104 13.608 53.6911 12.8722 53.4524 12.2472C53.2195 11.6222 52.8729 11.1364 52.4126 10.7898C51.9581 10.4432 51.3984 10.2699 50.7337 10.2699C50.0462 10.2699 49.4723 10.4489 49.0121 10.8068C48.5518 11.1648 48.2053 11.6591 47.9723 12.2898C47.7393 12.9205 47.6229 13.642 47.6229 14.4545C47.6229 15.2727 47.7393 16.0028 47.9723 16.6449C48.2109 17.2812 48.5604 17.7841 49.0206 18.1534C49.4865 18.517 50.0575 18.6989 50.7337 18.6989Z" fill="#6941C6"/>
<path d="M68.4759 15.4943V7.90909H71.5611V21H68.5696V18.6733H68.4332C68.1378 19.4062 67.652 20.0057 66.9759 20.4716C66.3054 20.9375 65.4787 21.1705 64.4957 21.1705C63.6378 21.1705 62.8793 20.9801 62.2202 20.5994C61.5668 20.2131 61.0554 19.6534 60.6861 18.9205C60.3168 18.1818 60.1321 17.2898 60.1321 16.2443V7.90909H63.2173V15.767C63.2173 16.5966 63.4446 17.2557 63.8991 17.7443C64.3537 18.233 64.9503 18.4773 65.6889 18.4773C66.1435 18.4773 66.5838 18.3665 67.0099 18.1449C67.4361 17.9233 67.7855 17.5938 68.0582 17.1562C68.3366 16.7131 68.4759 16.1591 68.4759 15.4943ZM80.4439 21.2557C79.1371 21.2557 78.0149 20.9688 77.0774 20.3949C76.1456 19.821 75.4268 19.0284 74.9212 18.017C74.4212 17 74.1712 15.8295 74.1712 14.5057C74.1712 13.1761 74.4268 12.0028 74.9382 10.9858C75.4496 9.96307 76.1712 9.16761 77.103 8.59943C78.0405 8.02557 79.1484 7.73864 80.4268 7.73864C81.4893 7.73864 82.4297 7.93466 83.2479 8.3267C84.0717 8.71307 84.728 9.26136 85.2166 9.97159C85.7053 10.6761 85.9837 11.5 86.0518 12.4432H83.103C82.9837 11.8125 82.6996 11.2869 82.2507 10.8665C81.8075 10.4403 81.2138 10.2273 80.4695 10.2273C79.8388 10.2273 79.2848 10.3977 78.8075 10.7386C78.3303 11.0739 77.9581 11.5568 77.6911 12.1875C77.4297 12.8182 77.299 13.5739 77.299 14.4545C77.299 15.3466 77.4297 16.1136 77.6911 16.7557C77.9524 17.392 78.3189 17.8835 78.7905 18.2301C79.2678 18.571 79.8274 18.7415 80.4695 18.7415C80.924 18.7415 81.3303 18.6562 81.6882 18.4858C82.0518 18.3097 82.3558 18.0568 82.6001 17.7273C82.8445 17.3977 83.0121 16.9972 83.103 16.5256H86.0518C85.978 17.4517 85.7053 18.2727 85.2337 18.9886C84.7621 19.6989 84.12 20.2557 83.3075 20.6591C82.495 21.0568 81.5405 21.2557 80.4439 21.2557ZM92.3523 21.2642C91.5227 21.2642 90.7756 21.1165 90.1108 20.821C89.4517 20.5199 88.929 20.0767 88.5426 19.4915C88.1619 18.9062 87.9716 18.1847 87.9716 17.3267C87.9716 16.5881 88.108 15.9773 88.3807 15.4943C88.6534 15.0114 89.0256 14.625 89.4972 14.3352C89.9688 14.0455 90.5 13.8267 91.0909 13.679C91.6875 13.5256 92.304 13.4148 92.9403 13.3466C93.7074 13.267 94.3295 13.196 94.8068 13.1335C95.2841 13.0653 95.6307 12.9631 95.8466 12.8267C96.0682 12.6847 96.179 12.4659 96.179 12.1705V12.1193C96.179 11.4773 95.9886 10.9801 95.608 10.6278C95.2273 10.2756 94.679 10.0994 93.9631 10.0994C93.2074 10.0994 92.608 10.2642 92.1648 10.5938C91.7273 10.9233 91.4318 11.3125 91.2784 11.7614L88.3977 11.3523C88.625 10.5568 89 9.89205 89.5227 9.35795C90.0455 8.81818 90.6847 8.41477 91.4403 8.14773C92.196 7.875 93.0313 7.73864 93.946 7.73864C94.5767 7.73864 95.2045 7.8125 95.8295 7.96023C96.4545 8.10795 97.0256 8.35227 97.5426 8.69318C98.0597 9.02841 98.4744 9.4858 98.7869 10.0653C99.1051 10.6449 99.2642 11.3693 99.2642 12.2386V21H96.2983V19.2017H96.196C96.0085 19.5653 95.7443 19.9062 95.4034 20.2244C95.0682 20.5369 94.6449 20.7898 94.1335 20.983C93.6278 21.1705 93.0341 21.2642 92.3523 21.2642ZM93.1534 18.9972C93.7727 18.9972 94.3097 18.875 94.7642 18.6307C95.2188 18.3807 95.5682 18.0511 95.8125 17.642C96.0625 17.233 96.1875 16.7869 96.1875 16.304V14.7614C96.0909 14.8409 95.9261 14.9148 95.6932 14.983C95.4659 15.0511 95.2102 15.1108 94.9261 15.1619C94.642 15.2131 94.3608 15.2585 94.0824 15.2983C93.804 15.3381 93.5625 15.3722 93.358 15.4006C92.8977 15.4631 92.4858 15.5653 92.1222 15.7074C91.7585 15.8494 91.4716 16.0483 91.2614 16.304C91.0511 16.554 90.946 16.8778 90.946 17.2756C90.946 17.8438 91.1534 18.2727 91.5682 18.5625C91.983 18.8523 92.5114 18.9972 93.1534 18.9972ZM108.903 7.90909V10.2955H101.378V7.90909H108.903ZM103.236 4.77273H106.321V17.0625C106.321 17.4773 106.384 17.7955 106.509 18.017C106.639 18.233 106.81 18.3807 107.02 18.4602C107.23 18.5398 107.463 18.5795 107.719 18.5795C107.912 18.5795 108.088 18.5653 108.247 18.5369C108.412 18.5085 108.537 18.483 108.622 18.4602L109.142 20.8722C108.977 20.929 108.741 20.9915 108.435 21.0597C108.134 21.1278 107.764 21.1676 107.327 21.179C106.554 21.2017 105.858 21.0852 105.239 20.8295C104.619 20.5682 104.128 20.1648 103.764 19.6193C103.406 19.0739 103.23 18.392 103.236 17.5739V4.77273ZM117.138 21.2557C115.826 21.2557 114.692 20.983 113.738 20.4375C112.789 19.8864 112.059 19.108 111.548 18.1023C111.036 17.0909 110.781 15.9006 110.781 14.5312C110.781 13.1847 111.036 12.0028 111.548 10.9858C112.065 9.96307 112.786 9.16761 113.712 8.59943C114.638 8.02557 115.727 7.73864 116.977 7.73864C117.783 7.73864 118.545 7.86932 119.261 8.13068C119.982 8.38636 120.619 8.78409 121.17 9.32386C121.727 9.86364 122.164 10.5511 122.482 11.3864C122.8 12.2159 122.96 13.2045 122.96 14.3523V15.2983H112.229V13.2188H120.002C119.996 12.6278 119.869 12.1023 119.619 11.642C119.369 11.1761 119.019 10.8097 118.57 10.5426C118.127 10.2756 117.61 10.142 117.019 10.142C116.388 10.142 115.835 10.2955 115.357 10.6023C114.88 10.9034 114.508 11.3011 114.241 11.7955C113.979 12.2841 113.846 12.821 113.84 13.4062V15.2216C113.84 15.983 113.979 16.6364 114.258 17.1818C114.536 17.7216 114.925 18.1364 115.425 18.4261C115.925 18.7102 116.511 18.8523 117.181 18.8523C117.63 18.8523 118.036 18.7898 118.4 18.6648C118.763 18.5341 119.079 18.3438 119.346 18.0938C119.613 17.8438 119.815 17.5341 119.951 17.1648L122.832 17.4886C122.65 18.25 122.303 18.9148 121.792 19.483C121.286 20.0455 120.638 20.483 119.849 20.7955C119.059 21.1023 118.156 21.2557 117.138 21.2557ZM127.47 21.1875C126.953 21.1875 126.51 21.0057 126.141 20.642C125.771 20.2784 125.589 19.8352 125.595 19.3125C125.589 18.8011 125.771 18.3636 126.141 18C126.51 17.6364 126.953 17.4545 127.47 17.4545C127.97 17.4545 128.405 17.6364 128.774 18C129.149 18.3636 129.339 18.8011 129.345 19.3125C129.339 19.6591 129.249 19.9744 129.072 20.2585C128.902 20.5426 128.675 20.7699 128.391 20.9403C128.112 21.1051 127.805 21.1875 127.47 21.1875Z" fill="white"/>
</svg>
